ffmpeg started on 2016-11-25 at 08:18:03
Report written to "Output/NVENCh264/results/ffmpeg/sintelhq9000k.log"
Command line:
Tools/ffmpeg/ffmpeg -benchmark -y -i Input/y4m/sintel.y4m -c:v h264_nvenc -preset hq -b:v 9000k -an Output/NVENCh264/encoded/sintelhq9000k.mkv
ffmpeg version N-82227-gdb23fde Copyright (c) 2000-2016 the FFmpeg developers
  built with gcc 5.4.0 (Ubuntu 5.4.0-6ubuntu1~16.04.2) 20160609
  configuration: --prefix=/home/jaroslav/ffmpeg_build --pkg-config-flags=--static --extra-cflags=-I/home/jaroslav/ffmpeg_build/include --extra-ldflags=-L/home/jaroslav/ffmpeg_build/lib --bindir=/home/jaroslav/bin --enable-gpl --enable-libass --enable-libfdk-aac --enable-libfreetype --enable-libmp3lame --enable-libopus --enable-libtheora --enable-libvorbis --enable-libvpx --enable-libx264 --enable-libx265 --enable-nvenc --enable-libmfx --enable-libxvid --enable-libgsm --enable-libopencore-amrnb --enable-version3 --enable-nonfree
  libavutil      55. 35.100 / 55. 35.100
  libavcodec     57. 66.101 / 57. 66.101
  libavformat    57. 57.100 / 57. 57.100
  libavdevice    57.  2.100 / 57.  2.100
  libavfilter     6. 66.100 /  6. 66.100
  libswscale      4.  3.100 /  4.  3.100
  libswresample   2.  4.100 /  2.  4.100
  libpostproc    54.  2.100 / 54.  2.100
Input #0, yuv4mpegpipe, from 'Input/y4m/sintel.y4m':
  Duration: 00:00:20.83, start: 0.000000, bitrate: 2057307 kb/s
    Stream #0:0: Video: rawvideo (I420 / 0x30323449), yuv420p(progressive), 4096x1744, SAR 1:1 DAR 256:109, 24 fps, 24 tbr, 24 tbn, 24 tbc
Output #0, matroska, to 'Output/NVENCh264/encoded/sintelhq9000k.mkv':
  Metadata:
    encoder         : Lavf57.57.100
    Stream #0:0: Video: h264 (h264_nvenc) (Main) (H264 / 0x34363248), yuv420p, 4096x1744 [SAR 1:1 DAR 256:109], q=-1--1, 9000 kb/s, 24 fps, 1k tbn, 24 tbc
    Metadata:
      encoder         : Lavc57.66.101 h264_nvenc
    Side data:
      cpb: bitrate max/min/avg: 0/0/9000000 buffer size: 18000000 vbv_delay: -1
Stream mapping:
  Stream #0:0 -> #0:0 (rawvideo (native) -> h264 (h264_nvenc))
Press [q] to stop, [?] for help
frame=   19 fps=0.0 q=0.0 size=       0kB time=00:00:00.00 bitrate=N/A speed=   0x    frame=   40 fps= 40 q=34.0 size=       1kB time=00:00:00.37 bitrate=  15.6kbits/s speed=0.373x    frame=   61 fps= 40 q=34.0 size=       1kB time=00:00:01.25 bitrate=   4.7kbits/s speed=0.821x    frame=   82 fps= 40 q=33.0 size=       1kB time=00:00:02.12 bitrate=   2.8kbits/s speed=1.05x    frame=  103 fps= 41 q=33.0 size=       1kB time=00:00:03.00 bitrate=   2.0kbits/s speed=1.18x    frame=  124 fps= 41 q=31.0 size=       1kB time=00:00:03.87 bitrate=   1.5kbits/s speed=1.27x    frame=  144 fps= 41 q=30.0 size=    5154kB time=00:00:04.70 bitrate=8965.5kbits/s speed=1.33x    frame=  165 fps= 41 q=33.0 size=    5448kB time=00:00:05.58 bitrate=7992.9kbits/s speed=1.38x    frame=  175 fps= 26 q=32.0 size=    5448kB time=00:00:06.00 bitrate=7437.4kbits/s speed=0.893x    frame=  176 fps= 17 q=32.0 size=    5448kB time=00:00:06.04 bitrate=7385.8kbits/s speed=0.588x    frame=  177 fps= 13 q=32.0 size=    5448kB time=00:00:06.08 bitrate=7336.0kbits/s speed=0.442x    frame=  198 fps= 14 q=31.0 size=    5448kB time=00:00:06.95 bitrate=6413.6kbits/s speed=0.487x    frame=  219 fps= 15 q=33.0 size=    5448kB time=00:00:07.83 bitrate=5697.2kbits/s speed=0.529x    frame=  240 fps= 16 q=32.0 size=    5448kB time=00:00:08.70 bitrate=5124.8kbits/s speed=0.569x    frame=  261 fps= 17 q=32.0 size=    5448kB time=00:00:09.58 bitrate=4656.9kbits/s speed=0.606x    frame=  281 fps= 17 q=31.0 size=   10592kB time=00:00:10.41 bitrate=8328.9kbits/s speed=0.639x    frame=  302 fps= 18 q=32.0 size=   11758kB time=00:00:11.29 bitrate=8529.4kbits/s speed=0.671x    frame=  323 fps= 19 q=31.0 size=   11758kB time=00:00:12.16 bitrate=7916.0kbits/s speed=0.701x    frame=  344 fps= 19 q=29.0 size=   11758kB time=00:00:13.04 bitrate=7385.0kbits/s speed=0.73x    frame=  365 fps= 20 q=28.0 size=   11758kB time=00:00:13.91 bitrate=6920.7kbits/s speed=0.758x    frame=  386 fps= 20 q=28.0 size=   11758kB time=00:00:14.79 bitrate=6511.3kbits/s speed=0.784x    frame=  407 fps= 21 q=27.0 size=   11758kB time=00:00:15.66 bitrate=6147.7kbits/s speed=0.808x    frame=  428 fps= 22 q=27.0 size=   16068kB time=00:00:16.54 bitrate=7956.9kbits/s speed=0.831x    frame=  449 fps= 22 q=26.0 size=   17682kB time=00:00:17.41 bitrate=8316.1kbits/s speed=0.853x    frame=  470 fps= 22 q=29.0 size=   17682kB time=00:00:18.29 bitrate=7918.4kbits/s speed=0.874x    frame=  491 fps= 23 q=29.0 size=   17682kB time=00:00:19.16 bitrate=7556.9kbits/s speed=0.894x    frame=  500 fps= 23 q=29.0 Lsize=   21779kB time=00:00:20.79 bitrate=8580.4kbits/s speed=0.958x    
video:21774kB audio:0kB subtitle:0kB other streams:0kB global headers:0kB muxing overhead: 0.022277%
bench: utime=0.896s
bench: maxrss=838816kB
